#N canvas 0 23 275 278 12;
#X obj 36 166 mangler;
#X floatatom 82 137 5 0 0 0 - - -;
#X floatatom 103 176 5 0 0 0 - - -;
#X obj 36 41 inlet~;
#X obj 36 235 outlet~;
#X obj 86 41 inlet;
#X obj 129 41 inlet;
#X obj 217 41 inlet;
#X obj 173 41 inlet;
#X obj 36 200 lop~ 20000;
#X obj 82 111 pipe 0;
#X connect 0 0 9 0;
#X connect 1 0 0 1;
#X connect 2 0 9 1;
#X connect 3 0 0 0;
#X connect 5 0 1 0;
#X connect 6 0 10 1;
#X connect 7 0 2 0;
#X connect 8 0 10 0;
#X connect 9 0 4 0;
#X connect 10 0 1 0;
